<svg width="843" height="106" viewBox="0 0 843 106" fill="none" xmlns="http://www.w3.org/2000/svg">
<path d="M59.648 98.968C57.152 101.08 53.792 102.616 49.568 103.576C45.44 104.536 41.312 105.016 37.184 105.016C32 105.016 27.152 104.152 22.64 102.424C18.224 100.6 14.336 97.624 10.976 93.496C7.616 89.368 4.976 83.944 3.056 77.224C1.136 70.504 0.176 62.248 0.176 52.456C0.176 42.28 1.232 33.832 3.344 27.112C5.552 20.392 8.384 15.064 11.84 11.128C15.392 7.096 19.424 4.264 23.936 2.632C28.448 0.999994 33.008 0.183993 37.616 0.183993C42.32 0.183993 46.4 0.567994 49.856 1.336C53.408 2.104 56.288 2.968 58.496 3.928L54.896 19.912C53.072 18.952 50.912 18.232 48.416 17.752C46.016 17.176 43.136 16.888 39.776 16.888C33.152 16.888 28.064 19.768 24.512 25.528C20.96 31.288 19.184 40.312 19.184 52.6C19.184 57.88 19.568 62.728 20.336 67.144C21.2 71.464 22.496 75.208 24.224 78.376C26.048 81.544 28.304 83.992 30.992 85.72C33.776 87.448 37.088 88.312 40.928 88.312C44.288 88.312 47.168 87.88 49.568 87.016C51.968 86.056 54.128 84.952 56.048 83.704L59.648 98.968ZM61.9104 52.6C61.9104 35.512 64.8384 22.504 70.6944 13.576C76.5504 4.64799 85.4784 0.183993 97.4784 0.183993C103.718 0.183993 109.094 1.43199 113.606 3.928C118.118 6.32799 121.814 9.832 124.694 14.44C127.574 18.952 129.686 24.472 131.03 31C132.47 37.432 133.19 44.632 133.19 52.6C133.19 69.688 130.166 82.696 124.118 91.624C118.166 100.552 109.286 105.016 97.4784 105.016C91.1424 105.016 85.7184 103.816 81.2064 101.416C76.7904 98.92 73.1424 95.416 70.2624 90.904C67.3824 86.296 65.2704 80.776 63.9264 74.344C62.5824 67.816 61.9104 60.568 61.9104 52.6ZM80.9184 52.6C80.9184 57.688 81.2064 62.44 81.7824 66.856C82.3584 71.176 83.3184 74.92 84.6624 78.088C86.0064 81.256 87.6864 83.752 89.7024 85.576C91.8144 87.4 94.4064 88.312 97.4784 88.312C103.046 88.312 107.222 85.48 110.006 79.816C112.79 74.152 114.182 65.08 114.182 52.6C114.182 47.704 113.894 43.096 113.318 38.776C112.742 34.36 111.782 30.568 110.438 27.4C109.19 24.136 107.51 21.592 105.398 19.768C103.286 17.848 100.646 16.888 97.4784 16.888C86.4384 16.888 80.9184 28.792 80.9184 52.6ZM208.32 51.016L210.336 31.72H209.616L204.288 49L187.872 84.424H181.824L164.4 48.856L159.072 31.432H158.208L160.944 50.872V103H143.808V2.19999H161.232L182.256 45.832L185.712 58.36H186.288L189.6 45.544L209.328 2.19999H226.464V103H208.32V51.016ZM239.433 3.208C242.889 2.44 246.681 1.86399 250.809 1.47999C254.937 0.999994 259.065 0.759995 263.193 0.759995C267.609 0.759995 271.929 1.19199 276.153 2.05599C280.473 2.824 284.313 4.408 287.673 6.80799C291.033 9.208 293.769 12.616 295.881 17.032C297.993 21.352 299.049 27.016 299.049 34.024C299.049 40.36 298.137 45.736 296.313 50.152C294.585 54.568 292.233 58.168 289.257 60.952C286.281 63.736 282.825 65.752 278.889 67C275.049 68.248 271.065 68.872 266.937 68.872C266.553 68.872 265.929 68.872 265.065 68.872C264.201 68.872 263.289 68.872 262.329 68.872C261.369 68.776 260.409 68.68 259.449 68.584C258.585 68.488 257.961 68.392 257.577 68.296V103H239.433V3.208ZM257.577 52.024C258.153 52.216 259.209 52.408 260.745 52.6C262.377 52.696 263.481 52.744 264.057 52.744C266.169 52.744 268.185 52.456 270.105 51.88C272.025 51.304 273.705 50.344 275.145 49C276.681 47.56 277.881 45.64 278.745 43.24C279.609 40.744 280.041 37.624 280.041 33.88C280.041 30.712 279.609 28.024 278.745 25.816C277.977 23.608 276.873 21.88 275.433 20.632C274.089 19.288 272.505 18.328 270.681 17.752C268.857 17.176 266.937 16.888 264.921 16.888C261.945 16.888 259.497 17.128 257.577 17.608V52.024ZM339.388 80.248H315.628L309.724 103H291.724L320.956 1.47999H335.212L364.588 103H345.58L339.388 80.248ZM319.516 65.272H336.22L330.46 41.8L328.156 25.96H327.58L325.132 41.944L319.516 65.272ZM392.953 53.464L386.329 35.752H385.609L387.913 53.176V103H370.777V1.47999H384.745L413.689 52.168L419.881 69.592H420.745L418.441 52.456V2.19999H435.577V103.72H421.609L392.953 53.464ZM468.559 65.56L441.486 2.19999H463.087L477.055 40.36L478.495 51.304H479.215L480.799 40.072L494.479 2.19999H513.919L486.703 65.416V103H468.559V65.56ZM568.172 53.464L561.548 35.752H560.828L563.132 53.176V103H545.996V1.47999H559.964L588.908 52.168L595.1 69.592H595.964L593.66 52.456V2.19999H610.796V103.72H596.828L568.172 53.464ZM664.513 80.248H640.753L634.849 103H616.849L646.081 1.47999H660.337L689.713 103H670.705L664.513 80.248ZM644.641 65.272H661.345L655.585 41.8L653.281 25.96H652.705L650.257 41.944L644.641 65.272ZM760.414 51.016L762.43 31.72H761.71L756.382 49L739.966 84.424H733.918L716.494 48.856L711.166 31.432H710.302L713.038 50.872V103H695.902V2.19999H713.326L734.35 45.832L737.806 58.36H738.382L741.694 45.544L761.422 2.19999H778.558V103H760.414V51.016ZM791.527 2.19999H841.927V18.904H809.671V43.672H838.903V60.376H809.671V86.296H842.503V103H791.527V2.19999Z" fill="#FFC800"/>
</svg>
