<svg xmlns="http://www.w3.org/2000/svg" xmlns:xlink="http://www.w3.org/1999/xlink" width="1080" zoomAndPan="magnify" viewBox="0 0 810 809.999993" height="1080" preserveAspectRatio="xMidYMid meet" version="1.0"><defs><clipPath id="efda89f717"><path d="M 602 324.773438 L 631.65625 324.773438 L 631.65625 391.777344 L 602 391.777344 Z M 602 324.773438 " clip-rule="nonzero"/></clipPath><clipPath id="6b77ca1764"><path d="M 598.5 403.15625 L 631.65625 403.15625 L 631.65625 473.957031 L 598.5 473.957031 Z M 598.5 403.15625 " clip-rule="nonzero"/></clipPath><clipPath id="ea959c288c"><path d="M 178.65625 169.582031 L 534.90625 169.582031 L 534.90625 641.535156 L 178.65625 641.535156 Z M 178.65625 169.582031 " clip-rule="nonzero"/></clipPath><clipPath id="bacf8ac407"><path d="M 220.105469 489.445312 L 534.90625 489.445312 L 534.90625 641.535156 L 220.105469 641.535156 Z M 220.105469 489.445312 " clip-rule="nonzero"/></clipPath><clipPath id="da936dffcc"><path d="M 506.28125 577.6875 L 503.585938 562.402344 C 501.949219 563.140625 500.082031 563.546875 498.050781 563.546875 L 296.996094 563.546875 C 288.769531 563.546875 280.921875 556.882812 279.46875 548.664062 L 224.8125 238.808594 C 223.109375 223.921875 228.855469 223.921875 237.082031 223.921875 L 438.136719 223.921875 C 440.335938 223.796875 442.199219 223.683594 443.785156 223.605469 L 439.757812 200.792969 C 437.96875 190.65625 428.296875 182.441406 418.152344 182.441406 L 212.125 182.441406 C 209.265625 175.167969 207.148438 169.875 207.148438 169.875 C 207.148438 169.875 185.378906 180.136719 182.089844 187.75 C 179.3125 191.078125 178.042969 195.691406 178.945312 200.792969 L 253.496094 623.1875 C 255.285156 633.320312 264.957031 641.535156 275.101562 641.535156 L 499.183594 641.535156 C 501.410156 641.535156 503.472656 641.140625 505.320312 640.414062 C 511.132812 638.367188 532.269531 629.847656 534.757812 613.457031 C 534.757812 613.457031 523.90625 599.835938 506.28125 577.6875 " clip-rule="nonzero"/></clipPath><clipPath id="e0043d6ef4"><path d="M 198 168.300781 L 535 168.300781 L 535 628 L 198 628 Z M 198 168.300781 " clip-rule="nonzero"/></clipPath></defs><path fill="#202c55" d="M 525.027344 608.007812 L 523.339844 619.800781 L 507.324219 639.167969 L 538.464844 639.550781 L 537.667969 604.640625 C 537.667969 604.640625 525.867188 605.484375 525.027344 608.007812 " fill-opacity="1" fill-rule="nonzero"/><path fill="#202c55" d="M 577.441406 611.453125 L 575.753906 623.242188 L 559.738281 640.574219 L 593.605469 640.367188 L 590.085938 608.085938 C 590.085938 608.085938 578.285156 608.929688 577.441406 611.453125 " fill-opacity="1" fill-rule="nonzero"/><path fill="#16677c" d="M 531.742188 448.960938 L 527.554688 498.917969 C 527.554688 498.917969 521.347656 568.507812 521.347656 573.328125 C 521.347656 578.152344 519.96875 611.914062 519.96875 611.914062 L 537.898438 610.539062 C 537.898438 610.539062 558.101562 517.714844 563.617188 483.953125 L 579.972656 439.664062 C 579.972656 439.664062 542.828125 430.011719 531.742188 448.960938 " fill-opacity="1" fill-rule="nonzero"/><path fill="#16677c" d="M 557.179688 477.523438 C 557.179688 477.523438 573.507812 581.339844 575.574219 611.65625 L 576.265625 615.101562 L 598.5625 617.167969 C 598.5625 617.167969 596.527344 483.757812 593.078125 445.175781 C 593.078125 445.175781 574.453125 418.992188 566.179688 447.242188 C 557.902344 475.492188 557.179688 477.523438 557.179688 477.523438 " fill-opacity="1" fill-rule="nonzero"/><path fill="#efb77f" d="M 511.433594 382.351562 L 504.152344 415.316406 L 523.039062 422.011719 C 523.039062 422.011719 533.398438 403.75 533.398438 397.664062 L 532.960938 388.703125 C 532.960938 388.703125 519.933594 374.34375 511.433594 382.351562 " fill-opacity="1" fill-rule="nonzero"/><path fill="#e19a73" d="M 530.054688 408.617188 C 530.054688 408.480469 530.050781 408.339844 530.050781 408.203125 C 530.191406 407.878906 530.335938 407.554688 530.476562 407.230469 L 530.054688 408.617188 M 532.398438 388.113281 C 531.167969 386.863281 528.035156 383.902344 524.292969 381.902344 L 523.761719 380.257812 C 527.691406 382.5625 531.078125 386.398438 532.386719 387.980469 L 532.398438 388.113281 " fill-opacity="1" fill-rule="nonzero"/><path fill="#e09366" d="M 530.050781 408.203125 C 529.902344 399.253906 524.964844 392.667969 520.214844 388.378906 L 524.574219 382.777344 L 524.292969 381.902344 C 528.035156 383.902344 531.167969 386.863281 532.398438 388.113281 L 533.285156 398.03125 L 530.476562 407.230469 C 530.335938 407.554688 530.191406 407.878906 530.050781 408.203125 " fill-opacity="1" fill-rule="nonzero"/><path fill="#1a5979" d="M 530.933594 325.191406 C 530.933594 325.191406 524.839844 329.675781 519.558594 352.835938 L 511.433594 382.351562 C 511.433594 382.351562 522.808594 377.867188 532.960938 388.703125 C 532.960938 388.703125 557.335938 329.675781 530.933594 325.191406 " fill-opacity="1" fill-rule="nonzero"/><path fill="#26749b" d="M 561.113281 307.132812 L 532.960938 323.570312 C 532.960938 323.570312 527.273438 325.597656 527.679688 335.335938 L 533.773438 403.511719 L 595.925781 408.789062 C 595.925781 408.789062 613.796875 335.742188 614.609375 332.902344 C 615.421875 330.0625 617.046875 327.628906 610.144531 322.351562 C 603.234375 317.074219 586.988281 303.277344 586.988281 303.277344 C 586.988281 303.277344 562.859375 300.429688 561.113281 307.132812 " fill-opacity="1" fill-rule="nonzero"/><path fill="#efb77f" d="M 563.457031 293.425781 L 559.800781 314.804688 C 559.800781 314.804688 578.078125 316.910156 587.21875 300.480469 L 587.21875 276.132812 C 587.21875 276.132812 554.929688 252.898438 563.457031 293.425781 " fill-opacity="1" fill-rule="nonzero"/><path fill="#e19a73" d="M 561.113281 307.132812 L 563.457031 293.425781 L 561.113281 307.128906 C 561.113281 307.128906 561.113281 307.128906 561.113281 307.132812 " fill-opacity="1" fill-rule="nonzero"/><path fill="#e09366" d="M 561.113281 307.132812 L 561.113281 307.128906 L 563.457031 293.425781 C 563.457031 293.425781 575.640625 288.796875 581.734375 279.726562 C 581.734375 279.726562 583.410156 284.757812 585.65625 284.757812 C 586.152344 284.757812 586.675781 284.511719 587.21875 283.90625 L 587.21875 286.78125 C 587.21875 297.414062 561.179688 307.105469 561.113281 307.132812 " fill-opacity="1" fill-rule="nonzero"/><path fill="#165270" d="M 551.773438 263.386719 C 551.773438 263.386719 530.554688 237.78125 559.191406 234.132812 C 559.191406 234.132812 618.351562 234.21875 590.902344 270.085938 L 567.722656 273.683594 L 551.773438 263.386719 " fill-opacity="1" fill-rule="nonzero"/><path fill="#efb77f" d="M 552.488281 259.695312 C 552.488281 259.695312 543.351562 299.765625 563.457031 293.425781 C 563.457031 293.425781 575.640625 288.796875 581.734375 279.726562 C 581.734375 279.726562 586.609375 294.371094 590.875 273.683594 C 590.875 273.683594 592.09375 253.671875 582.953125 267.03125 L 587.21875 248.742188 C 587.21875 248.742188 554.414062 237.949219 552.488281 259.695312 " fill-opacity="1" fill-rule="nonzero"/><path fill="#165270" d="M 565.8125 246.40625 C 565.8125 246.40625 571.988281 263.414062 582.953125 267.03125 L 590.929688 253.910156 C 590.929688 253.910156 579.132812 228.042969 565.8125 243.871094 L 565.8125 246.40625 " fill-opacity="1" fill-rule="nonzero"/><path fill="#ca8964" d="M 558.03125 249.265625 C 558.003906 249.210938 557.972656 249.15625 557.941406 249.105469 C 557.941406 249.105469 562.894531 246.316406 565.207031 246.316406 C 565.433594 246.316406 565.636719 246.34375 565.808594 246.40625 C 562.953125 246.835938 560.253906 247.714844 558.03125 249.265625 " fill-opacity="1" fill-rule="nonzero"/><path fill="#e09366" d="M 582.183594 267.058594 C 579.070312 267.058594 567.132812 265.914062 558.03125 249.265625 C 560.253906 247.714844 562.953125 246.835938 565.808594 246.40625 C 565.808594 246.40625 565.808594 246.40625 565.8125 246.40625 C 565.8125 246.40625 567.488281 251.671875 571.421875 257.132812 C 574.273438 261.296875 578.152344 265.449219 582.953125 267.03125 C 582.953125 267.03125 582.679688 267.058594 582.183594 267.058594 " fill-opacity="1" fill-rule="nonzero"/><path fill="#ca8964" d="M 582.953125 267.03125 C 578.152344 265.449219 574.273438 261.296875 571.421875 257.132812 C 574.132812 260.894531 577.914062 264.742188 582.953125 267.03125 " fill-opacity="1" fill-rule="nonzero"/><path fill="#efb77f" d="M 559.800781 314.804688 C 559.800781 314.804688 554.085938 334.117188 570.332031 325.191406 C 570.332031 325.191406 587.21875 314.171875 587.21875 300.480469 C 587.21875 300.480469 561.453125 308.472656 559.800781 314.804688 " fill-opacity="1" fill-rule="nonzero"/><path fill="#26749b" d="M 533.773438 403.511719 L 533.371094 416.90625 L 595.113281 422.992188 L 602.019531 384.847656 C 602.019531 384.847656 534.992188 388.496094 533.773438 403.511719 " fill-opacity="1" fill-rule="nonzero"/><g clip-path="url(#efda89f717)"><path fill="#26749b" d="M 613.796875 324.789062 C 613.796875 324.789062 599.988281 339.394531 602.421875 363.746094 L 606.894531 391.742188 C 606.894531 391.742188 613.394531 381.195312 628.828125 379.570312 L 631.671875 379.976562 C 631.671875 379.976562 626.796875 332.902344 613.796875 324.789062 " fill-opacity="1" fill-rule="nonzero"/></g><path fill="#efb77f" d="M 606.894531 391.742188 L 610.546875 412.035156 C 610.546875 412.035156 613.394531 402.296875 630.453125 405.949219 C 630.453125 405.949219 629.640625 386.46875 627.203125 379.570312 C 627.203125 379.570312 611.359375 381.601562 606.894531 391.742188 " fill-opacity="1" fill-rule="nonzero"/><path fill="#e19a73" d="M 608.515625 401.890625 L 606.894531 391.742188 L 608.566406 401.046875 C 608.542969 401.328125 608.527344 401.609375 608.515625 401.890625 " fill-opacity="1" fill-rule="nonzero"/><path fill="#cb8c69" d="M 606.894531 391.742188 C 606.894531 391.742188 610.550781 381.601562 627.203125 379.570312 C 627.15625 379.578125 611.355469 381.613281 606.894531 391.742188 " fill-opacity="1" fill-rule="nonzero"/><path fill="#e09366" d="M 608.566406 401.046875 L 606.894531 391.742188 C 611.355469 381.613281 627.15625 379.578125 627.203125 379.570312 C 627.203125 379.570312 609.710938 388.5 608.566406 401.046875 " fill-opacity="1" fill-rule="nonzero"/><g clip-path="url(#6b77ca1764)"><path fill="#efb77f" d="M 610.546875 412.035156 C 610.546875 412.035156 603.464844 417.75 602.246094 437.835938 L 598.589844 466.441406 L 612.984375 473.71875 L 629.664062 428.707031 C 629.664062 428.707031 633.070312 416.058594 630.453125 405.949219 C 630.453125 405.949219 613.976562 397.191406 610.546875 412.035156 " fill-opacity="1" fill-rule="nonzero"/></g><path fill="#efb77f" d="M 598.589844 466.441406 C 598.589844 466.441406 589.425781 490.761719 595.113281 487.511719 L 599.175781 480.613281 C 599.175781 480.613281 597.957031 492.789062 606.082031 494.414062 C 606.082031 494.414062 616.640625 499.6875 615.421875 487.109375 C 614.207031 474.527344 612.175781 474.121094 614.207031 470.066406 C 616.238281 466.007812 602.070312 452.675781 598.589844 466.441406 " fill-opacity="1" fill-rule="nonzero"/><path fill="#efb77f" d="M 516.71875 468.34375 C 516.71875 468.34375 516.898438 494.328125 512.6875 489.3125 L 511.261719 481.441406 C 511.261719 481.441406 508.195312 493.28125 500.007812 491.996094 C 500.007812 491.996094 488.273438 493.300781 493.769531 481.917969 C 499.269531 470.535156 501.316406 470.855469 500.816406 466.347656 C 500.3125 461.835938 518.222656 454.222656 516.71875 468.34375 " fill-opacity="1" fill-rule="nonzero"/><path fill="#26749b" d="M 533.371094 416.90625 L 531.742188 448.960938 C 531.742188 448.960938 541.890625 431.378906 593.078125 445.175781 L 595.113281 422.992188 C 595.113281 422.992188 552.054688 353.191406 533.371094 416.90625 " fill-opacity="1" fill-rule="nonzero"/><path fill="#efb77f" d="M 504.152344 415.316406 C 504.152344 415.316406 503.394531 416.015625 502.367188 417.582031 C 499.9375 421.269531 495.984375 429.753906 496.84375 445.140625 L 499.886719 473.136719 L 512.679688 474.964844 C 512.679688 474.964844 524.867188 428.09375 523.039062 422.011719 L 504.152344 415.316406 " fill-opacity="1" fill-rule="nonzero"/><path fill="#1a5979" d="M 603.621094 374.167969 L 599.484375 341.09375 C 599.484375 341.09375 588.449219 369.574219 599.941406 393.917969 L 603.621094 374.167969 " fill-opacity="1" fill-rule="nonzero"/><path fill="#144d70" d="M 531.742188 448.960938 C 531.742188 448.960938 571.894531 440.773438 593.507812 460.066406 L 593.078125 445.175781 C 593.078125 445.175781 543.09375 430.96875 531.742188 448.960938 " fill-opacity="1" fill-rule="nonzero"/><path fill="#144d70" d="M 559.96875 501.671875 L 546.175781 462.398438 C 546.175781 462.398438 554.453125 498.226562 551.695312 545.082031 C 551.695312 545.082031 559.96875 512.699219 559.96875 501.671875 " fill-opacity="1" fill-rule="nonzero"/><path fill="#091438" d="M 575.753906 623.242188 L 590.324219 620.355469 L 588.6875 617.09375 L 576.265625 615.101562 L 575.753906 623.242188 " fill-opacity="1" fill-rule="nonzero"/><path fill="#1a5979" d="M 546.808594 345.140625 C 546.808594 345.140625 549.484375 360.066406 545.402344 365.777344 C 541.316406 371.492188 532.742188 393.113281 532.742188 393.113281 L 530.699219 377.609375 L 528.25 354.765625 C 528.25 354.765625 530.289062 343.339844 531.519531 343.339844 L 546.808594 345.140625 " fill-opacity="1" fill-rule="nonzero"/><path fill="#5db0d1" d="M 546.808594 351.058594 C 546.808594 353.78125 544.597656 355.988281 541.875 355.988281 L 538.582031 355.988281 C 535.859375 355.988281 533.648438 353.78125 533.648438 351.058594 L 533.648438 345.140625 C 533.648438 342.417969 535.859375 340.210938 538.582031 340.210938 L 541.875 340.210938 C 544.597656 340.210938 546.808594 342.417969 546.808594 345.140625 L 546.808594 351.058594 " fill-opacity="1" fill-rule="nonzero"/><path fill="#257aa5" d="M 543.769531 351.09375 C 543.769531 353.34375 541.941406 355.171875 539.683594 355.171875 L 536.964844 355.171875 C 534.707031 355.171875 532.878906 353.34375 532.878906 351.09375 L 532.878906 346.195312 C 532.878906 343.941406 534.707031 342.117188 536.964844 342.117188 L 539.683594 342.117188 C 541.941406 342.117188 543.769531 343.941406 543.769531 346.195312 L 543.769531 351.09375 " fill-opacity="1" fill-rule="nonzero"/><path fill="#165f75" d="M 541.273438 350.582031 C 541.273438 352.363281 539.824219 353.808594 538.039062 353.808594 L 535.882812 353.808594 C 534.097656 353.808594 532.652344 352.363281 532.652344 350.582031 L 532.652344 346.707031 C 532.652344 344.921875 534.097656 343.476562 535.882812 343.476562 L 538.039062 343.476562 C 539.824219 343.476562 541.273438 344.921875 541.273438 346.707031 L 541.273438 350.582031 " fill-opacity="1" fill-rule="nonzero"/><path fill="#2a8fa0" d="M 198.859375 217.59375 L 269.589844 585.757812 L 510.546875 583.046875 L 439.265625 217.59375 C 439.265625 217.59375 200.765625 186.992188 198.859375 217.59375 " fill-opacity="1" fill-rule="nonzero"/><g clip-path="url(#ea959c288c)"><path fill="#257aa5" d="M 506.28125 577.6875 L 503.585938 562.402344 C 501.949219 563.140625 500.082031 563.546875 498.050781 563.546875 L 296.996094 563.546875 C 288.769531 563.546875 280.921875 556.882812 279.46875 548.664062 L 224.8125 238.808594 C 223.109375 223.921875 228.855469 223.921875 237.082031 223.921875 L 438.136719 223.921875 C 440.335938 223.796875 442.199219 223.683594 443.785156 223.605469 L 439.757812 200.792969 C 437.96875 190.65625 428.296875 182.441406 418.152344 182.441406 L 212.125 182.441406 C 209.265625 175.167969 207.148438 169.875 207.148438 169.875 C 207.148438 169.875 185.378906 180.136719 182.089844 187.75 C 179.3125 191.078125 178.042969 195.691406 178.945312 200.792969 L 253.496094 623.1875 C 255.285156 633.320312 264.957031 641.535156 275.101562 641.535156 L 499.183594 641.535156 C 501.410156 641.535156 503.472656 641.140625 505.320312 640.414062 C 511.132812 638.367188 532.269531 629.847656 534.757812 613.457031 C 534.757812 613.457031 523.90625 599.835938 506.28125 577.6875 " fill-opacity="1" fill-rule="nonzero"/></g><g clip-path="url(#bacf8ac407)"><g clip-path="url(#da936dffcc)"><path fill="#19517f" d="M 229.921875 489.613281 C 229.921875 489.613281 249.066406 511.9375 255.433594 505.5625 L 534.199219 612.753906 C 534.199219 612.753906 552.777344 649.238281 499.183594 641.535156 C 445.589844 633.828125 229.921875 676.671875 229.921875 676.671875 L 220.140625 563.546875 L 229.921875 489.613281 " fill-opacity="1" fill-rule="nonzero"/></g></g><path fill="#257aa5" d="M 432.59375 223.921875 L 493.851562 563.546875 L 513.453125 579.042969 C 513.453125 579.042969 515.085938 526.988281 513.453125 523.726562 C 511.816406 520.460938 457.09375 204.691406 457.09375 204.691406 C 457.09375 204.691406 425.242188 183.167969 432.59375 223.921875 " fill-opacity="1" fill-rule="nonzero"/><path fill="#19517f" d="M 439.867188 264.265625 C 439.867188 264.265625 447.582031 242.152344 454.789062 235.660156 L 447.328125 212.03125 C 447.328125 212.03125 429.265625 205.488281 432.59375 223.921875 L 439.867188 264.265625 " fill-opacity="1" fill-rule="nonzero"/><g clip-path="url(#e0043d6ef4)"><path fill="#61e5f2" d="M 498.050781 563.546875 L 296.996094 563.546875 C 288.769531 563.546875 280.921875 556.882812 279.46875 548.664062 L 224.8125 238.808594 C 223.109375 223.921875 228.855469 223.921875 237.082031 223.921875 L 438.136719 223.921875 C 457.652344 222.796875 450.761719 222.816406 455.664062 238.808594 L 510.320312 548.664062 C 511.773438 556.882812 506.28125 563.546875 498.050781 563.546875 Z M 534.515625 609.058594 L 459.960938 186.664062 C 458.171875 176.53125 448.5 168.316406 438.355469 168.316406 L 214.277344 168.316406 C 204.132812 168.316406 197.359375 176.53125 199.148438 186.664062 L 273.703125 609.058594 C 275.492188 619.195312 285.164062 627.410156 295.308594 627.410156 L 519.386719 627.410156 C 529.53125 627.410156 536.300781 619.195312 534.515625 609.058594 " fill-opacity="1" fill-rule="nonzero"/></g><path fill="#19517f" d="M 426.003906 602.597656 C 426.996094 608.207031 423.246094 612.753906 417.628906 612.753906 L 403.644531 612.753906 C 398.027344 612.753906 392.667969 608.207031 391.679688 602.597656 L 389.3125 589.203125 C 388.324219 583.59375 392.074219 579.042969 397.691406 579.042969 L 411.679688 579.042969 C 417.292969 579.042969 422.652344 583.59375 423.640625 589.203125 L 426.003906 602.597656 " fill-opacity="1" fill-rule="nonzero"/><path fill="#257aa5" d="M 421.675781 603.300781 C 422.546875 608.523438 419.238281 612.753906 414.28125 612.753906 L 401.941406 612.753906 C 396.984375 612.753906 392.253906 608.523438 391.382812 603.300781 L 389.296875 590.835938 C 388.421875 585.613281 391.730469 581.382812 396.6875 581.382812 L 409.03125 581.382812 C 413.988281 581.382812 418.714844 585.613281 419.589844 590.835938 L 421.675781 603.300781 " fill-opacity="1" fill-rule="nonzero"/><path fill="#257aa5" d="M 356.707031 194.242188 C 356.707031 196.980469 354.480469 199.207031 351.738281 199.207031 L 308.617188 199.207031 C 305.871094 199.207031 303.644531 196.980469 303.644531 194.242188 C 303.644531 191.496094 305.871094 189.273438 308.617188 189.273438 L 351.738281 189.273438 C 354.480469 189.273438 356.707031 191.496094 356.707031 194.242188 " fill-opacity="1" fill-rule="nonzero"/><path fill="#19517f" d="M 504.113281 513.46875 C 504.113281 513.46875 505.253906 536.347656 490.160156 543.089844 L 493.851562 563.546875 C 493.851562 563.546875 512.804688 562.726562 510.320312 548.664062 L 504.113281 513.46875 " fill-opacity="1" fill-rule="nonzero"/><path fill="#73bfbd" d="M 501.535156 382.777344 C 501.535156 382.777344 541.316406 416.644531 519.910156 432.800781 C 519.910156 432.800781 490.335938 421.398438 501.535156 382.777344 " fill-opacity="1" fill-rule="nonzero"/><path fill="#ffffff" d="M 443.917969 392.578125 L 462.09375 414.066406 C 462.09375 414.066406 443.3125 416.511719 443.917969 449.820312 L 434.257812 441.222656 L 427.378906 422.316406 C 427.378906 422.316406 438.800781 386.527344 443.917969 392.578125 " fill-opacity="1" fill-rule="nonzero"/><path fill="#ffffff" d="M 443.917969 449.820312 L 462.089844 460.664062 C 462.089844 460.664062 471.519531 471.066406 490.507812 456.992188 L 519.910156 432.800781 C 519.910156 432.800781 497.246094 413.816406 501.535156 382.777344 C 501.535156 382.777344 465.527344 409.074219 462.089844 414.066406 C 462.089844 414.066406 435.914062 410.214844 443.917969 449.820312 " fill-opacity="1" fill-rule="nonzero"/><path fill="#73bfbd" d="M 434.492188 442.019531 C 434.492188 442.019531 439.347656 416.472656 452.351562 402.550781 L 443.917969 392.574219 L 427.378906 422.316406 L 434.492188 442.019531 " fill-opacity="1" fill-rule="nonzero"/><path fill="#4cd9e0" d="M 357.148438 339.453125 C 357.148438 339.453125 348.5625 347.597656 351.558594 371.535156 C 354.550781 395.46875 379.191406 477.335938 379.191406 477.335938 C 379.191406 477.335938 395.527344 528.332031 396.34375 563.007812 L 440.890625 563.007812 C 440.890625 563.007812 423.40625 451.285156 409.539062 412.320312 C 409.539062 412.320312 400.089844 366.285156 393.441406 351.90625 C 393.441406 351.90625 361.652344 320.695312 357.148438 339.453125 " fill-opacity="1" fill-rule="nonzero"/><path fill="#39afbc" d="M 371.054688 365.011719 L 379.183594 372.714844 C 379.183594 372.714844 381.640625 375.539062 381.4375 380.109375 C 381.234375 384.683594 385.90625 452.132812 385.90625 452.132812 L 388.929688 456.992188 C 388.929688 456.992188 395.351562 387.199219 386.472656 374.324219 C 377.59375 361.453125 368.84375 349.695312 370.410156 365.011719 L 371.054688 365.011719 " fill-opacity="1" fill-rule="nonzero"/><path fill="#16677c" d="M 371.457031 360.75 L 381.4375 372.714844 C 381.4375 372.714844 384.28125 369.722656 390.378906 371.625 C 390.378906 371.625 389.8125 357.957031 387.5625 354.046875 C 387.5625 354.046875 372.296875 341.445312 371.457031 360.75 " fill-opacity="1" fill-rule="nonzero"/><path fill="#144d70" d="M 375.011719 365.011719 C 375.011719 365.011719 378.382812 356.734375 388.929688 358.332031 C 388.929688 358.332031 388.660156 356.5 388.113281 355.273438 C 387.5625 354.046875 374.871094 337.375 371.175781 360.550781 L 375.011719 365.011719 " fill-opacity="1" fill-rule="nonzero"/><path fill="#2486a8" d="M 379.351562 351.910156 C 379.351562 351.910156 386.453125 347.644531 390.324219 359.621094 C 390.324219 359.621094 391.621094 348.140625 381.664062 341.933594 C 381.664062 341.933594 373.117188 341.171875 379.351562 351.910156 " fill-opacity="1" fill-rule="nonzero"/><path fill="#19263a" d="M 406.347656 277.046875 C 406.347656 277.046875 414.734375 283.359375 404.3125 304.578125 C 404.3125 304.578125 396.3125 292.890625 400.835938 282.144531 C 405.355469 271.398438 400.835938 280.921875 400.835938 280.921875 L 406.347656 277.046875 " fill-opacity="1" fill-rule="nonzero"/><path fill="#f9ac78" d="M 358.761719 319.738281 L 356.730469 343.339844 C 356.730469 343.339844 365.304688 355.578125 381.234375 351.5 C 381.234375 351.5 379.191406 341.789062 384.089844 336.035156 C 384.089844 336.035156 360.382812 300.886719 358.761719 319.738281 " fill-opacity="1" fill-rule="nonzero"/><path fill="#c96b5f" d="M 381.675781 341.90625 C 381.570312 341.828125 381.46875 341.753906 381.367188 341.675781 C 381.769531 339.984375 382.4375 338.289062 383.5 336.796875 C 383.578125 336.832031 383.65625 336.867188 383.734375 336.902344 L 381.675781 341.90625 " fill-opacity="1" fill-rule="nonzero"/><path fill="#cc7366" d="M 381.664062 341.933594 C 381.664062 341.933594 381.53125 341.921875 381.3125 341.921875 C 381.328125 341.839844 381.347656 341.757812 381.367188 341.675781 C 381.46875 341.753906 381.570312 341.828125 381.675781 341.90625 L 381.664062 341.933594 " fill-opacity="1" fill-rule="nonzero"/><path fill="#c86a60" d="M 381.03125 343.46875 C 381.101562 342.957031 381.195312 342.4375 381.3125 341.921875 C 381.53125 341.921875 381.664062 341.933594 381.664062 341.933594 L 381.03125 343.46875 " fill-opacity="1" fill-rule="nonzero"/><path fill="#c96b5f" d="M 358.414062 323.761719 L 358.761719 319.738281 L 358.414062 323.761719 " fill-opacity="1" fill-rule="nonzero"/><path fill="#de6e5b" d="M 381.03125 343.46875 C 380.976562 343.464844 361.320312 341.691406 358.414062 323.761719 L 358.761719 319.738281 C 360.308594 320.035156 362.035156 320.226562 363.964844 320.296875 C 367.628906 325.96875 373.671875 332.402344 383.5 336.796875 C 382.4375 338.289062 381.769531 339.984375 381.367188 341.675781 C 381.347656 341.757812 381.328125 341.839844 381.3125 341.921875 C 381.195312 342.4375 381.101562 342.957031 381.03125 343.46875 " fill-opacity="1" fill-rule="nonzero"/><path fill="#f9ac78" d="M 400.835938 284.046875 C 400.835938 284.046875 388.855469 263.375 367.347656 273.980469 C 367.347656 273.980469 352.851562 282.917969 357.546875 303.964844 C 357.542969 303.960938 346.65625 293.421875 345.839844 303.964844 C 345.839844 303.964844 342.886719 319.554688 363.964844 320.296875 C 368.597656 327.46875 377.039062 335.859375 392.121094 339.804688 C 392.121094 339.804688 399.472656 342.25 403.285156 323.890625 C 403.285156 323.890625 406.824219 295.472656 400.835938 284.046875 " fill-opacity="1" fill-rule="nonzero"/><path fill="#2486a8" d="M 351.929688 351.25 C 351.929688 351.25 356.101562 364.011719 371.253906 368.089844 C 371.253906 368.089844 369.425781 356.683594 376.890625 352.246094 C 376.890625 352.246094 356.335938 347.917969 357.023438 339.910156 C 357.023438 339.910156 354.753906 341.480469 351.929688 351.25 " fill-opacity="1" fill-rule="nonzero"/><path fill="#16677c" d="M 376.890625 352.246094 C 376.890625 352.246094 379.804688 351.5 381.4375 356.597656 C 381.4375 356.597656 373.003906 354.226562 372.09375 358.378906 C 372.09375 358.378906 373.570312 353.398438 376.890625 352.246094 " fill-opacity="1" fill-rule="nonzero"/><path fill="#2486a8" d="M 381.4375 356.597656 C 381.4375 356.597656 382.414062 349.492188 385.804688 352.332031 L 381.234375 351.5 C 381.234375 351.5 380.925781 352.804688 378.097656 352.332031 C 378.097656 352.332031 381.234375 355.375 381.4375 356.597656 " fill-opacity="1" fill-rule="nonzero"/><path fill="#2486a8" d="M 378.097656 352.332031 C 378.097656 352.332031 381.417969 352.519531 380.816406 347.214844 L 387.035156 353.425781 C 387.035156 353.425781 382.457031 348.441406 381.4375 356.597656 L 378.097656 352.332031 " fill-opacity="1" fill-rule="nonzero"/><path fill="#16677c" d="M 381.4375 356.597656 C 381.4375 356.597656 385.644531 338.238281 390.378906 358.332031 C 390.378906 358.332031 383.683594 347.214844 381.4375 356.597656 " fill-opacity="1" fill-rule="nonzero"/><path fill="#16677c" d="M 376.890625 352.246094 C 376.890625 352.246094 381.425781 351.292969 380.820312 346.195312 C 380.820312 346.195312 383.851562 354.203125 376.890625 352.246094 " fill-opacity="1" fill-rule="nonzero"/><path fill="#144d70" d="M 379.183594 370.011719 C 379.183594 370.011719 387.003906 365.371094 390.378906 371.625 C 390.378906 371.625 383.761719 367.777344 381.953125 374.324219 C 381.953125 374.324219 380.472656 371.558594 379.183594 370.011719 " fill-opacity="1" fill-rule="nonzero"/><path fill="#16677c" d="M 381.4375 372.714844 L 382.566406 376.25 C 382.566406 376.25 385.140625 372.621094 390.378906 374.480469 L 390.378906 371.625 C 390.378906 371.625 385.726562 366.1875 381.4375 372.714844 " fill-opacity="1" fill-rule="nonzero"/><path fill="#16677c" d="M 382.566406 376.25 L 388.929688 456.992188 C 388.929688 456.992188 403.296875 473.515625 409.539062 481.472656 C 409.539062 481.472656 414.878906 465.277344 415.636719 451.039062 C 415.636719 451.039062 392.996094 377.066406 390.378906 374.480469 C 390.378906 374.480469 386.078125 371.625 382.566406 376.25 " fill-opacity="1" fill-rule="nonzero"/><path fill="#144d70" d="M 390.378906 374.480469 C 390.378906 374.480469 382.851562 379.871094 383.851562 392.578125 L 382.566406 376.25 C 382.566406 376.25 384.597656 370.765625 390.378906 374.480469 " fill-opacity="1" fill-rule="nonzero"/><path fill="#39afbc" d="M 370.410156 367.851562 C 370.410156 367.851562 360.429688 365.59375 355.707031 362.3125 C 355.707031 362.3125 349.582031 369.097656 356.730469 396.503906 C 363.875 423.90625 356.730469 397.601562 356.730469 397.601562 C 356.730469 397.601562 347.746094 368.132812 351.929688 351.25 C 351.929688 351.25 355.300781 360.742188 370.410156 367.851562 " fill-opacity="1" fill-rule="nonzero"/><path fill="#39afbc" d="M 376.765625 469.179688 C 376.765625 469.179688 388.039062 504.082031 395.90625 497.148438 C 395.90625 497.148438 410.773438 491.269531 415.636719 472.261719 C 415.636719 472.261719 415.890625 488.171875 395.90625 504.082031 C 395.90625 504.082031 387.945312 507.550781 390.378906 519.84375 L 376.765625 469.179688 " fill-opacity="1" fill-rule="nonzero"/><path fill="#39afbc" d="M 427.722656 488.105469 C 427.722656 488.105469 429.828125 513.871094 405.328125 535.085938 C 405.328125 535.085938 422.03125 524.886719 427.769531 513.464844 C 427.769531 513.464844 432.503906 513.355469 434.496094 524.855469 L 427.722656 488.105469 " fill-opacity="1" fill-rule="nonzero"/><path fill="#39afbc" d="M 415.636719 469.179688 C 415.636719 469.179688 421.316406 455.300781 417.707031 441.222656 L 421.804688 459.175781 C 421.804688 459.175781 419.820312 463.441406 415.636719 469.179688 " fill-opacity="1" fill-rule="nonzero"/><path fill="#39afbc" d="M 395.90625 554.945312 C 395.90625 554.945312 432.914062 555.078125 436.273438 535.085938 L 440.890625 563.007812 L 396.34375 563.007812 L 395.90625 554.945312 " fill-opacity="1" fill-rule="nonzero"/><path fill="#39afbc" d="M 393.992188 539.128906 C 393.992188 539.128906 398.121094 556.460938 418.402344 551.484375 C 418.402344 551.484375 405.078125 557.027344 395.335938 549.046875 L 393.992188 539.128906 " fill-opacity="1" fill-rule="nonzero"/><path fill="#ffffff" d="M 357.023438 339.910156 C 357.023438 339.910156 333.042969 354.6875 322.425781 359.621094 C 322.425781 359.621094 314.257812 361.425781 311.808594 373.191406 C 311.808594 373.191406 338.808594 385.398438 334.417969 472.902344 C 334.417969 472.902344 335.535156 517.269531 341.660156 563.007812 L 396.34375 563.007812 C 396.34375 563.007812 394.449219 523.0625 380.917969 482.992188 C 380.917969 482.992188 336.25 353.171875 357.023438 339.910156 " fill-opacity="1" fill-rule="nonzero"/><path fill="#ffffff" d="M 311.808594 373.191406 L 299.148438 402.902344 C 299.148438 402.902344 285.671875 436.359375 286.488281 460.019531 C 286.488281 460.019531 280.769531 489.394531 305.273438 485.316406 C 305.273438 485.316406 319.160156 485.316406 354.074219 459.203125 L 362.855469 451.460938 C 362.855469 451.460938 346.113281 433.503906 354.074219 413.511719 C 354.074219 413.511719 329.367188 344.292969 311.808594 373.191406 " fill-opacity="1" fill-rule="nonzero"/><path fill="#73bfbd" d="M 338.535156 473.59375 C 338.535156 473.59375 366.347656 457.972656 374.925781 446.132812 C 374.925781 446.132812 363.175781 477.132812 339.136719 489.03125 L 338.535156 473.59375 " fill-opacity="1" fill-rule="nonzero"/><path fill="#ffffff" d="M 358.414062 404.925781 C 358.414062 404.925781 362.5 429.015625 376.765625 438.804688 C 376.765625 438.804688 365.042969 450.886719 360.613281 454.230469 C 360.613281 454.230469 338.046875 429.792969 358.414062 404.925781 " fill-opacity="1" fill-rule="nonzero"/><path fill="#95acad" d="M 315.949219 365.617188 C 315.492188 365.207031 315.222656 365.011719 315.222656 365.011719 C 315.472656 365.210938 315.710938 365.417969 315.949219 365.617188 " fill-opacity="1" fill-rule="nonzero"/><path fill="#f9ac78" d="M 358.414062 404.925781 L 376.765625 397.191406 C 376.765625 397.191406 375.820312 403.410156 380.703125 408.972656 C 380.703125 408.972656 369.914062 418.75 364.410156 423.203125 C 364.410156 423.203125 359.007812 417.828125 358.414062 404.925781 " fill-opacity="1" fill-rule="nonzero"/><path fill="#df7669" d="M 359.511719 412.859375 C 358.921875 410.574219 358.496094 407.921875 358.414062 404.925781 C 358.554688 407.984375 358.964844 410.621094 359.511719 412.859375 " fill-opacity="1" fill-rule="nonzero"/><path fill="#de6e5b" d="M 364.410156 423.203125 C 364.410156 423.203125 361.25 419.601562 359.511719 412.859375 C 358.964844 410.621094 358.554688 407.984375 358.414062 404.925781 C 358.414062 404.925781 362.90625 416.648438 371.933594 416.648438 C 371.988281 416.648438 372.039062 416.648438 372.09375 416.644531 L 364.410156 423.203125 " fill-opacity="1" fill-rule="nonzero"/><path fill="#73bfbd" d="M 372.09375 416.644531 C 372.09375 416.644531 379.378906 430.644531 376.765625 438.804688 C 376.765625 438.804688 368.28125 435.070312 364.410156 423.203125 L 372.09375 416.644531 " fill-opacity="1" fill-rule="nonzero"/><path fill="#4bb1b1" d="M 364.421875 423.234375 C 364.421875 423.234375 364.417969 423.230469 364.417969 423.230469 C 364.417969 423.21875 364.414062 423.210938 364.410156 423.203125 C 364.414062 423.214844 364.417969 423.226562 364.421875 423.234375 " fill-opacity="1" fill-rule="nonzero"/><path fill="#81bdba" d="M 366.648438 428.4375 C 365.792969 426.910156 364.949219 425.109375 364.417969 423.230469 C 364.417969 423.230469 364.421875 423.234375 364.421875 423.234375 C 365.058594 425.183594 365.820312 426.910156 366.648438 428.4375 " fill-opacity="1" fill-rule="nonzero"/><path fill="#56a9a6" d="M 369.558594 432.800781 C 369.558594 432.800781 368.089844 431.015625 366.648438 428.4375 C 365.820312 426.910156 365.058594 425.183594 364.421875 423.234375 C 364.417969 423.226562 364.414062 423.214844 364.410156 423.203125 L 372.09375 416.644531 C 372.09375 416.644531 366.320312 425.433594 369.558594 432.800781 " fill-opacity="1" fill-rule="nonzero"/><path fill="#9dd2d1" d="M 321.015625 376.722656 C 320.941406 376.566406 320.867188 376.410156 320.792969 376.25 C 320.792969 376.25 320.875 376.410156 321.015625 376.722656 " fill-opacity="1" fill-rule="nonzero"/><path fill="#5db1b4" d="M 358.328125 404.5625 C 358.078125 403.453125 357.828125 402.351562 357.585938 401.25 L 358.414062 404.519531 C 358.414062 404.519531 358.386719 404.53125 358.328125 404.5625 " fill-opacity="1" fill-rule="nonzero"/><path fill="#9dd2d1" d="M 351.945312 407.972656 C 351.246094 406.234375 350.386719 404.164062 349.398438 401.898438 C 351.777344 400.394531 354.226562 399.035156 356.730469 397.871094 L 357.585938 401.25 C 357.828125 402.351562 358.078125 403.453125 358.328125 404.5625 C 357.855469 404.800781 355.441406 406.035156 351.945312 407.972656 " fill-opacity="1" fill-rule="nonzero"/><path fill="#9dd2d1" d="M 315.589844 435.40625 C 315.589844 435.40625 319.230469 430.0625 325.277344 423.203125 C 330.484375 398.941406 322.476562 379.90625 321.015625 376.722656 C 329.328125 394.261719 331.710938 408.8125 332.390625 415.675781 C 337.332031 410.8125 343.113281 405.863281 349.398438 401.898438 C 350.386719 404.164062 351.246094 406.234375 351.945312 407.972656 C 346.898438 410.773438 339.601562 415.042969 332.667969 419.917969 L 332.652344 419.925781 C 325.746094 424.777344 319.195312 430.226562 315.589844 435.40625 " fill-opacity="1" fill-rule="nonzero"/><path fill="#39afbc" d="M 376.765625 438.804688 C 376.765625 438.804688 370.902344 446.992188 375.863281 467.582031 L 369.558594 446.046875 L 376.765625 438.804688 " fill-opacity="1" fill-rule="nonzero"/><path fill="#3f7bd1" d="M 439.386719 418.234375 C 438.992188 420.488281 436.839844 422.316406 434.582031 422.316406 L 382.347656 422.316406 C 380.09375 422.316406 378.585938 420.488281 378.984375 418.234375 L 391.886719 345.144531 C 392.28125 342.890625 394.433594 341.0625 396.6875 341.0625 L 448.925781 341.0625 C 451.179688 341.0625 452.6875 342.890625 452.289062 345.144531 L 439.386719 418.234375 " fill-opacity="1" fill-rule="nonzero"/><path fill="#144d70" d="M 387.035156 432.949219 C 387.035156 432.949219 396.058594 424.863281 407.839844 425.917969 L 406.707031 422.316406 L 386.195312 422.316406 L 387.035156 432.949219 " fill-opacity="1" fill-rule="nonzero"/><path fill="#3050aa" d="M 383.109375 407.699219 C 383.109375 407.699219 391.9375 402.605469 395.519531 395.003906 L 401.546875 385.53125 C 401.546875 385.53125 389.011719 378.613281 383.109375 407.699219 " fill-opacity="1" fill-rule="nonzero"/><path fill="#db6758" d="M 381.4375 381.035156 L 392.394531 372.714844 C 392.394531 372.714844 394.523438 372.445312 393.976562 375.1875 L 391.175781 378.152344 L 399.101562 387.402344 C 399.101562 387.402344 391.84375 390.933594 390.761719 393.929688 C 390.761719 393.929688 380.308594 385.816406 381.4375 381.035156 " fill-opacity="1" fill-rule="nonzero"/><path fill="#db6758" d="M 392.921875 372.707031 L 399.101562 373.203125 C 399.101562 373.203125 399.519531 376.167969 392.996094 375.042969 C 392.996094 375.042969 390.648438 373.523438 392.921875 372.707031 " fill-opacity="1" fill-rule="nonzero"/><path fill="#b24a42" d="M 391.175781 378.152344 L 386.472656 381.6875 L 391.933594 379.039062 Z M 391.175781 378.152344 " fill-opacity="1" fill-rule="nonzero"/><path fill="#b24a42" d="M 391.175781 378.152344 C 391.175781 378.152344 398.113281 379.257812 399.746094 378.152344 C 399.746094 378.152344 405.808594 384.273438 399.101562 387.402344 L 391.175781 378.152344 " fill-opacity="1" fill-rule="nonzero"/><path fill="#f9ac78" d="M 376.765625 397.191406 L 381.4375 381.035156 L 390.761719 393.929688 C 390.761719 393.929688 386.429688 407.699219 380.703125 408.972656 C 380.703125 408.972656 372.300781 407.257812 376.765625 397.191406 " fill-opacity="1" fill-rule="nonzero"/><path fill="#ffffff" d="M 440.890625 563.007812 L 459.234375 563.007812 C 459.234375 563.007812 441.671875 451.109375 427.378906 422.316406 L 412.730469 422.316406 C 412.730469 422.316406 440.929688 540.34375 440.890625 563.007812 " fill-opacity="1" fill-rule="nonzero"/><path fill="#ffffff" d="M 381.4375 341.402344 C 381.4375 341.402344 387.019531 343.140625 391.886719 345.144531 L 390.378906 354.355469 C 390.378906 354.355469 385.996094 344.085938 381.4375 341.402344 " fill-opacity="1" fill-rule="nonzero"/><path fill="#73bfbd" d="M 415.203125 432.800781 C 415.203125 432.800781 420.519531 426.472656 429.667969 427.539062 L 427.378906 422.316406 L 412.730469 422.316406 L 415.203125 432.800781 " fill-opacity="1" fill-rule="nonzero"/><path fill="#ffffff" d="M 439.867188 446.214844 C 439.867188 446.214844 464.679688 470.265625 477.59375 463.628906 C 477.59375 463.628906 458.886719 437.710938 439.867188 446.214844 " fill-opacity="1" fill-rule="nonzero"/><path fill="#3050aa" d="M 391.933594 400.347656 C 391.933594 400.347656 383.085938 422.316406 399.105469 422.316406 L 383.085938 422.316406 C 383.085938 422.316406 378.144531 422.992188 378.984375 418.234375 L 380.703125 408.972656 C 380.703125 408.972656 388.34375 405.695312 391.933594 400.347656 " fill-opacity="1" fill-rule="nonzero"/><path fill="#73bfbd" d="M 462.09375 414.066406 C 462.09375 414.066406 455.558594 419.359375 455.964844 435.40625 C 455.964844 435.40625 451.027344 421.304688 455.949219 406.800781 L 462.09375 414.066406 " fill-opacity="1" fill-rule="nonzero"/><path fill="#4251db" d="M 409.539062 341.0625 C 409.539062 341.0625 411.242188 335.179688 415.636719 335.179688 L 421.804688 335.179688 C 421.804688 335.179688 421.664062 331.101562 425.335938 331.507812 C 425.335938 331.507812 427.789062 330.910156 427.378906 333.453125 C 426.972656 335.996094 426.972656 335.996094 426.972656 335.996094 L 434.496094 336.664062 C 434.496094 336.664062 439.425781 338.054688 439.121094 341.921875 L 409.539062 341.0625 " fill-opacity="1" fill-rule="nonzero"/><path fill="#4251db" d="M 409.539062 341.0625 C 409.539062 341.0625 408.019531 347.992188 418.722656 348.929688 L 434.496094 350.007812 C 434.496094 350.007812 440.242188 349.070312 439.121094 341.921875 L 409.539062 341.0625 " fill-opacity="1" fill-rule="nonzero"/><path fill="#f9ac78" d="M 501.535156 382.777344 L 519.910156 368.355469 L 524.574219 382.777344 L 504.1875 408.972656 C 504.1875 408.972656 497.28125 394.882812 501.535156 382.777344 " fill-opacity="1" fill-rule="nonzero"/><path fill="#d07062" d="M 504.1875 408.972656 C 504.1875 408.972656 504.1875 408.972656 504.183594 408.96875 C 504.183594 408.964844 504.183594 408.960938 504.183594 408.960938 C 504.183594 408.96875 504.1875 408.972656 504.1875 408.972656 L 514.085938 396.253906 L 504.1875 408.972656 " fill-opacity="1" fill-rule="nonzero"/><path fill="#df7669" d="M 504.183594 408.96875 C 504.0625 408.769531 501.171875 403.996094 500.472656 396.136719 C 501.402344 403.140625 504.039062 408.660156 504.183594 408.960938 C 504.183594 408.960938 504.183594 408.964844 504.183594 408.96875 " fill-opacity="1" fill-rule="nonzero"/><path fill="#de6e5b" d="M 504.1875 408.972656 C 504.1875 408.972656 504.183594 408.96875 504.183594 408.960938 C 504.039062 408.660156 501.402344 403.140625 500.472656 396.136719 C 500.132812 392.34375 500.300781 387.835938 501.535156 382.777344 C 501.535156 382.777344 501.925781 396.363281 512.421875 396.363281 C 512.949219 396.363281 513.503906 396.328125 514.085938 396.253906 L 504.1875 408.972656 " fill-opacity="1" fill-rule="nonzero"/><path fill="#226e7e" d="M 459.234375 563.007812 L 341.660156 563.007812 L 440.890625 563.007812 C 440.890625 562.992188 440.0625 557.722656 438.632812 549.082031 C 438.914062 549.050781 439.199219 549.023438 439.480469 548.988281 C 440.378906 555.070312 440.898438 559.925781 440.890625 563.007812 L 459.234375 563.007812 " fill-opacity="1" fill-rule="nonzero"/><path fill="#39a2ab" d="M 440.890625 563.007812 L 438.589844 549.089844 C 438.605469 549.085938 438.617188 549.085938 438.632812 549.082031 C 440.0625 557.722656 440.890625 562.992188 440.890625 563.007812 " fill-opacity="1" fill-rule="nonzero"/><path fill="#226e7e" d="M 396.316406 562.511719 C 396.226562 560.960938 395.898438 555.898438 395.054688 548.476562 C 395.121094 548.484375 395.191406 548.496094 395.261719 548.503906 L 395.335938 549.046875 C 395.335938 549.046875 395.335938 549.046875 395.335938 549.050781 C 395.558594 551.039062 395.753906 553.007812 395.910156 554.945312 C 395.90625 554.945312 395.90625 554.945312 395.90625 554.945312 L 396.316406 562.511719 " fill-opacity="1" fill-rule="nonzero"/><path fill="#39a2ab" d="M 395.925781 554.945312 C 395.917969 554.945312 395.910156 554.945312 395.910156 554.945312 C 395.753906 553.007812 395.558594 551.039062 395.335938 549.050781 C 399.414062 552.390625 404.117188 553.359375 408.210938 553.359375 C 410.039062 553.359375 411.746094 553.164062 413.21875 552.902344 C 404.414062 554.914062 396.375 554.945312 395.925781 554.945312 M 411.503906 552.382812 C 406.910156 552.382812 403.460938 551.023438 400.898438 549.175781 C 406.734375 549.777344 412.890625 550.125 419.332031 550.125 C 420.265625 550.125 421.199219 550.121094 422.148438 550.105469 C 420.921875 550.621094 419.664062 551.078125 418.394531 551.488281 C 418.398438 551.484375 418.402344 551.484375 418.402344 551.484375 C 415.855469 552.109375 413.566406 552.382812 411.503906 552.382812 " fill-opacity="1" fill-rule="nonzero"/><path fill="#226e7e" d="M 338.058594 530.878906 C 338.046875 530.730469 338.03125 530.585938 338.019531 530.449219 C 338.03125 530.59375 338.046875 530.734375 338.058594 530.878906 " fill-opacity="1" fill-rule="nonzero"/><path fill="#2c8492" d="M 440.890625 563.007812 L 396.34375 563.007812 C 396.34375 563.007812 396.335938 562.839844 396.316406 562.511719 L 395.90625 554.945312 C 395.90625 554.945312 395.90625 554.945312 395.910156 554.945312 C 395.910156 554.945312 395.917969 554.945312 395.925781 554.945312 C 396.375 554.945312 404.414062 554.914062 413.21875 552.902344 C 416.238281 552.363281 418.28125 551.535156 418.394531 551.488281 C 419.664062 551.078125 420.921875 550.621094 422.148438 550.105469 C 427.453125 550.023438 432.941406 549.699219 438.589844 549.089844 L 440.890625 563.007812 " fill-opacity="1" fill-rule="nonzero"/><path fill="#2c8492" d="M 408.210938 553.359375 C 404.117188 553.359375 399.414062 552.390625 395.335938 549.050781 C 395.335938 549.046875 395.335938 549.046875 395.335938 549.046875 L 395.261719 548.503906 C 397.105469 548.753906 398.984375 548.980469 400.898438 549.175781 C 403.460938 551.023438 406.910156 552.382812 411.503906 552.382812 C 413.566406 552.382812 415.855469 552.109375 418.402344 551.484375 C 418.402344 551.484375 418.398438 551.484375 418.394531 551.488281 C 418.28125 551.535156 416.238281 552.363281 413.21875 552.902344 C 411.746094 553.164062 410.039062 553.359375 408.210938 553.359375 " fill-opacity="1" fill-rule="nonzero"/><path fill="#b6bcc0" d="M 396.34375 563.007812 L 341.660156 563.007812 C 341.660156 563.007812 338.757812 538.304688 338.058594 530.878906 C 338.046875 530.734375 338.03125 530.59375 338.019531 530.449219 C 338.015625 530.386719 338.007812 530.324219 338.003906 530.261719 C 338.003906 530.261719 360.097656 543.710938 395.054688 548.476562 C 395.898438 555.898438 396.226562 560.960938 396.316406 562.511719 C 396.335938 562.839844 396.34375 563.007812 396.34375 563.007812 " fill-opacity="1" fill-rule="nonzero"/><path fill="#b6bcc0" d="M 459.234375 563.007812 L 440.890625 563.007812 C 440.898438 559.925781 440.378906 555.070312 439.480469 548.988281 C 444.996094 548.367188 450.664062 547.464844 456.464844 546.246094 L 459.234375 563.007812 " fill-opacity="1" fill-rule="nonzero"/><path fill="#ffffff" d="M 390.03125 358.769531 C 390.035156 358.761719 391.085938 342.816406 403.308594 341.921875 C 404.726562 341.464844 406.25 341.140625 407.839844 341.0625 L 396.6875 341.0625 C 396.6875 341.0625 392.339844 340.25 390.914062 348.328125 C 389.488281 356.40625 391.324219 348.328125 391.324219 348.328125 L 388.929688 361.890625 L 390.03125 358.769531 " fill-opacity="1" fill-rule="nonzero"/><path fill="#c96b5f" d="M 400.128906 282.960938 C 398.65625 280.835938 394.894531 276.09375 389.066406 273.246094 C 389.945312 272.800781 390.679688 272.480469 391.175781 272.351562 C 392.21875 272.078125 393.371094 271.988281 394.554688 271.988281 C 396.925781 271.988281 399.441406 272.351562 401.546875 272.351562 C 403.101562 272.351562 404.265625 274.90625 404.824219 278.117188 L 401.558594 280.410156 C 402.601562 277.886719 402.90625 277.027344 402.832031 277.027344 C 402.683594 277.027344 400.835938 280.921875 400.835938 280.921875 L 401.558594 280.410156 C 401.347656 280.921875 401.109375 281.496094 400.835938 282.144531 C 400.820312 282.179688 400.804688 282.214844 400.789062 282.253906 C 400.3125 282.507812 400.019531 282.6875 400.019531 282.6875 L 400.128906 282.960938 M 372.097656 272.082031 C 374.871094 268.167969 376.503906 266.679688 377.386719 266.679688 C 378.382812 266.679688 378.425781 268.5625 378.070312 270.988281 C 376.1875 271.09375 374.195312 271.4375 372.097656 272.082031 " fill-opacity="1" fill-rule="nonzero"/><path fill="#c76055" d="M 402.902344 290.050781 C 402.867188 289.890625 402.828125 289.730469 402.792969 289.574219 L 402.984375 289.984375 C 402.957031 290.007812 402.929688 290.027344 402.902344 290.050781 M 400.789062 282.253906 C 400.804688 282.214844 400.820312 282.179688 400.835938 282.144531 C 401.109375 281.496094 401.347656 280.921875 401.558594 280.410156 L 404.824219 278.117188 C 404.957031 278.882812 405.054688 279.691406 405.113281 280.511719 C 403.578125 280.832031 401.785156 281.71875 400.789062 282.253906 M 400.835938 280.921875 C 400.835938 280.921875 402.683594 277.027344 402.832031 277.027344 C 402.90625 277.027344 402.601562 277.886719 401.558594 280.410156 L 400.835938 280.921875 " fill-opacity="1" fill-rule="nonzero"/><path fill="#de6e5b" d="M 362.855469 301.277344 L 358.414062 297.917969 C 358.414062 297.917969 358.363281 293.292969 358.414062 290.804688 C 358.464844 288.3125 360.542969 288.398438 372.09375 272.082031 C 372.097656 272.082031 372.097656 272.082031 372.097656 272.082031 C 374.195312 271.4375 376.1875 271.09375 378.070312 270.988281 C 377.425781 275.398438 375.457031 281.601562 375.457031 281.601562 C 375.457031 281.601562 384.378906 275.621094 389.066406 273.246094 C 394.894531 276.09375 398.65625 280.835938 400.128906 282.960938 L 402.789062 289.566406 L 402.792969 289.574219 C 402.828125 289.730469 402.867188 289.890625 402.902344 290.050781 C 401.152344 291.449219 398.410156 291.792969 396.15625 291.792969 C 394.023438 291.792969 392.328125 291.488281 392.328125 291.488281 L 395.859375 280.753906 C 392.636719 288.605469 382.488281 294.949219 375.011719 295.199219 C 366.882812 295.472656 362.855469 301.277344 362.855469 301.277344 " fill-opacity="1" fill-rule="nonzero"/><path fill="#19263a" d="M 345.699219 282.757812 C 345.699219 282.757812 343.574219 289.332031 350.246094 297.019531 C 350.425781 297.226562 350.613281 297.433594 350.808594 297.644531 C 358.160156 305.601562 358.773438 302.132812 360.40625 307.640625 C 360.40625 307.640625 368.777344 287.652344 368.574219 277.046875 C 368.574219 277.046875 371.429688 285.410156 367.550781 294.585938 C 367.550781 294.585938 371.023438 291.527344 376.332031 291.121094 C 381.640625 290.710938 392.449219 286.234375 396.539062 278.683594 C 396.539062 278.683594 394.503906 289.484375 387.972656 293.972656 C 387.972656 293.972656 404.511719 290.914062 406.347656 277.046875 C 406.347656 277.046875 406.960938 262.765625 390.828125 261.132812 C 390.828125 261.132812 362.84375 255.21875 345.699219 282.757812 " fill-opacity="1" fill-rule="nonzero"/><path fill="#19517f" d="M 463.449219 395.003906 C 463.449219 395.003906 480.953125 382.175781 479.042969 371.339844 L 483.371094 395.875 L 465.996094 410.195312 L 463.449219 395.003906 " fill-opacity="1" fill-rule="nonzero"/><path fill="#257aa5" d="M 479.042969 371.339844 C 479.042969 371.339844 495.136719 385.949219 492.828125 372.875 L 495.136719 387.988281 L 483.371094 395.875 L 479.042969 371.339844 " fill-opacity="1" fill-rule="nonzero"/><path fill="#73bfbd" d="M 439.265625 425.917969 C 439.265625 425.917969 441.78125 449.550781 450.707031 455.199219 C 450.707031 455.199219 435.722656 443.640625 434.207031 441.222656 C 434.207031 441.222656 435.820312 420.753906 439.265625 425.917969 " fill-opacity="1" fill-rule="nonzero"/><path fill="#3050aa" d="M 411.453125 346.332031 C 411.453125 346.332031 411.996094 350.410156 418.804688 351.226562 L 435.140625 352.859375 C 435.140625 352.859375 441.398438 352.859375 441.945312 341.164062 L 438.679688 340.621094 C 438.679688 340.621094 440.3125 349.324219 434.050781 348.78125 C 434.050781 348.78125 413.632812 349.324219 411.453125 346.332031 " fill-opacity="1" fill-rule="nonzero"/><path fill="#f9ac78" d="M 524.574219 343.46875 C 524.574219 343.46875 531.316406 339.652344 534.804688 335.292969 C 534.804688 335.292969 537.039062 341.246094 529.6875 348.328125 L 526.238281 359.621094 L 524.574219 343.46875 " fill-opacity="1" fill-rule="nonzero"/><path fill="#f9ac78" d="M 519.910156 368.355469 L 524.574219 343.46875 C 524.574219 343.46875 529.882812 346.910156 529.882812 359.25 C 529.882812 359.25 534.804688 378.152344 524.574219 382.777344 C 512.773438 388.113281 524.574219 382.777344 524.574219 382.777344 C 524.574219 382.777344 518.480469 375.980469 519.910156 368.355469 " fill-opacity="1" fill-rule="nonzero"/><path fill="#1d3f59" d="M 389.746094 358.332031 L 380.386719 361.398438 C 376.917969 362.460938 373.773438 362.238281 371.039062 360.75 C 365.175781 357.550781 362.859375 349.542969 362.835938 349.46875 L 362.808594 349.371094 L 353.382812 326.855469 C 349.316406 316.808594 350.34375 312.664062 351.3125 311.089844 C 352.195312 309.664062 353.503906 309.519531 353.597656 309.511719 C 354.488281 309.460938 355.171875 308.707031 355.136719 307.816406 C 355.09375 306.914062 354.328125 306.207031 353.433594 306.253906 C 352.328125 306.300781 350.070312 306.988281 348.605469 309.257812 C 346.214844 312.972656 346.804688 319.304688 350.363281 328.097656 L 359.71875 350.449219 C 360.039062 351.535156 362.703125 359.90625 369.457031 363.605469 C 371.5625 364.753906 373.824219 365.328125 376.226562 365.328125 C 377.867188 365.328125 379.570312 365.0625 381.332031 364.523438 L 388.582031 362.359375 L 389.746094 358.332031 " fill-opacity="1" fill-rule="nonzero"/><path fill="#de6e5b" d="M 357.160156 314.164062 L 356.355469 310.9375 C 355.984375 309.894531 355.542969 309.042969 355.066406 308.351562 C 355.117188 308.179688 355.144531 308 355.136719 307.816406 C 355.097656 306.9375 354.375 306.25 353.511719 306.25 C 353.484375 306.25 353.457031 306.253906 353.433594 306.253906 C 353.300781 306.257812 353.152344 306.273438 352.988281 306.300781 C 351.710938 305.488281 350.503906 305.367188 349.902344 305.367188 C 349.65625 305.367188 349.511719 305.386719 349.503906 305.390625 L 349.253906 303.773438 C 349.265625 303.773438 349.476562 303.742188 349.828125 303.742188 C 351.390625 303.742188 355.75 304.320312 357.90625 310.429688 L 357.929688 310.503906 L 358.746094 313.769531 L 357.160156 314.164062 " fill-opacity="1" fill-rule="nonzero"/><path fill="#c86358" d="M 355.066406 308.351562 C 354.410156 307.398438 353.691406 306.746094 352.988281 306.300781 C 353.152344 306.273438 353.300781 306.257812 353.433594 306.253906 C 353.457031 306.253906 353.484375 306.25 353.511719 306.25 C 354.375 306.25 355.097656 306.9375 355.136719 307.816406 C 355.144531 308 355.117188 308.179688 355.066406 308.351562 " fill-opacity="1" fill-rule="nonzero"/><path fill="#1d3f59" d="M 418.703125 335.710938 L 417.054688 331.59375 L 412.523438 319.253906 L 412.503906 319.152344 C 410.398438 308.988281 405.375 309.632812 405.160156 309.660156 L 404.65625 306.851562 C 404.976562 306.789062 412.558594 305.527344 415.28125 318.464844 L 419.730469 330.589844 L 421.355469 334.648438 L 418.703125 335.710938 " fill-opacity="1" fill-rule="nonzero"/><path fill="#f9ac78" d="M 527.027344 367.003906 C 527.027344 367.003906 529.882812 363.738281 534.785156 364.148438 C 534.785156 364.148438 535.601562 357.621094 540.5 354.355469 L 538.867188 368.226562 L 528.25 380.871094 C 528.25 380.871094 525.390625 372.714844 527.027344 367.003906 " fill-opacity="1" fill-rule="nonzero"/></svg>